<svg width="414" height="366" viewBox="0 0 414 366" fill="none" xmlns="http://www.w3.org/2000/svg">
<path d="M352.626 194.41C355.551 174.068 353.118 152.932 345.387 131.963C331.86 95.3046 304.387 62.3123 268.659 45.678C254.297 38.8762 238.654 35.2005 222.766 34.894C194.458 34.5502 170.538 46.5677 150.648 65.8238C135.085 80.8743 120.493 97.7175 101.365 108.414C83.2548 118.524 66.8025 132.455 61.9429 153.895C57.6428 172.875 65.5084 192.529 78.3683 206.535C86.7596 215.674 97.8334 221.814 106.299 230.859C117.642 242.991 116.193 254.018 117.137 269.567C119.112 302.054 147.669 324.458 177.217 332.141C214.058 341.719 248.567 327.976 276.221 303.395C294.096 287.509 312.462 271.65 327.229 252.731C341.215 234.789 349.667 215.007 352.626 194.41Z" fill="#90CAF9"/>
<path opacity="0.7" d="M352.626 194.41C355.551 174.068 353.118 152.932 345.387 131.963C331.86 95.3046 304.387 62.3123 268.659 45.678C254.297 38.8762 238.654 35.2005 222.766 34.894C194.458 34.5502 170.538 46.5677 150.648 65.8238C135.085 80.8743 120.493 97.7175 101.365 108.414C83.2548 118.524 66.8025 132.455 61.9429 153.895C57.6428 172.875 65.5084 192.529 78.3683 206.535C86.7596 215.674 97.8334 221.814 106.299 230.859C117.642 242.991 116.193 254.018 117.137 269.567C119.112 302.054 147.669 324.458 177.217 332.141C214.058 341.719 248.567 327.976 276.221 303.395C294.096 287.509 312.462 271.65 327.229 252.731C341.215 234.789 349.667 215.007 352.626 194.41Z" fill="white"/>
<path d="M236.704 285.467C238.234 286.141 241.989 286.053 241.995 286.053C242.002 286.053 241.186 283.6 241.112 283.452C240.29 281.726 237.688 278.882 235.565 279.172C235.216 279.23 234.882 279.361 234.586 279.556C234.291 279.751 234.039 280.007 233.849 280.305C233.658 280.604 233.532 280.94 233.48 281.29C233.427 281.64 233.449 281.998 233.543 282.34C233.887 283.809 235.397 284.901 236.704 285.467Z" fill="#A3A3A3"/>
<path d="M237.999 296.339C239.589 296.575 242.939 295.604 243.202 295.523C243.752 297.439 244.427 299.317 245.224 301.144C245.682 302.209 246.181 303.267 246.693 304.326C246.39 303.881 246.114 303.483 246.066 303.429C244.819 301.987 241.551 299.931 239.589 300.767C239.269 300.918 238.985 301.134 238.754 301.402C238.523 301.67 238.35 301.983 238.248 302.322C238.146 302.66 238.116 303.017 238.16 303.368C238.204 303.719 238.321 304.056 238.504 304.359C239.232 305.707 240.971 306.341 242.386 306.543C243.802 306.745 246.686 305.984 247.448 305.768C247.644 306.172 247.839 306.577 248.041 306.974C249.012 308.909 249.989 310.83 250.892 312.744C251.209 313.418 251.492 314.092 251.789 314.766C251.512 314.368 251.283 314.038 251.243 313.991C249.989 312.548 246.727 310.493 244.759 311.295C244.436 311.442 244.148 311.657 243.914 311.923C243.679 312.189 243.503 312.502 243.398 312.841C243.292 313.18 243.259 313.537 243.301 313.89C243.343 314.242 243.458 314.582 243.64 314.887C244.368 316.235 246.107 316.862 247.515 317.071C248.924 317.28 251.559 316.579 252.442 316.329C252.719 317.003 252.995 317.731 253.231 318.426C253.386 318.904 253.561 319.349 253.689 319.834C253.817 320.32 253.952 320.791 254.087 321.256C254.303 322.173 254.539 323.11 254.727 324.006C254.862 324.633 254.983 325.226 255.105 325.826C254.801 325.152 254.168 323.845 254.1 323.737C253.089 322.119 250.171 319.598 248.102 320.124C247.762 320.221 247.446 320.389 247.175 320.616C246.903 320.843 246.683 321.124 246.527 321.442C246.371 321.76 246.284 322.106 246.271 322.46C246.258 322.813 246.319 323.166 246.451 323.494C246.97 324.91 248.587 325.819 249.949 326.237C251.452 326.696 254.774 326.278 255.192 326.237C255.395 327.228 255.577 328.199 255.738 329.115C256.089 331.137 256.358 332.95 256.567 334.507H257.969C257.72 332.923 257.403 331.029 256.978 328.906C256.783 327.902 256.554 326.824 256.304 325.725C257.302 325.332 258.277 324.882 259.223 324.377C260.321 325.563 263.125 326.945 263.489 327.127C263.105 328.064 262.728 328.974 262.35 329.823C261.575 331.609 260.84 333.193 260.193 334.541H261.703C262.263 333.301 262.883 331.892 263.523 330.322C263.914 329.371 264.312 328.347 264.709 327.289C265.114 327.376 268.403 328.044 269.939 327.7C271.328 327.383 273.013 326.595 273.633 325.22C273.791 324.901 273.88 324.553 273.895 324.198C273.909 323.843 273.849 323.489 273.717 323.159C273.585 322.829 273.386 322.53 273.131 322.282C272.876 322.035 272.572 321.844 272.238 321.721C270.216 321.047 267.122 323.346 265.983 324.883C265.916 324.97 265.309 326.035 264.925 326.716C265.087 326.284 265.248 325.867 265.41 325.415C265.734 324.539 266.03 323.649 266.354 322.719C266.489 322.27 266.63 321.798 266.778 321.304C266.927 320.832 267.028 320.32 267.156 319.821C267.432 318.662 267.655 317.475 267.83 316.276C268.605 316.559 271.362 317.522 272.79 317.421C274.219 317.32 275.999 316.795 276.834 315.534C277.039 315.243 277.179 314.912 277.247 314.563C277.315 314.214 277.309 313.855 277.229 313.508C277.149 313.162 276.997 312.836 276.782 312.552C276.568 312.268 276.296 312.033 275.985 311.861C274.085 310.884 270.681 312.69 269.326 314.038C269.238 314.119 268.383 315.197 267.917 315.797C268.032 315.076 268.147 314.355 268.241 313.62C268.504 311.497 268.699 309.347 268.915 307.197C268.982 306.523 269.056 305.882 269.124 305.229C269.393 305.33 272.649 306.577 274.253 306.428C275.675 306.334 277.461 305.808 278.297 304.541C278.5 304.25 278.64 303.92 278.707 303.572C278.774 303.223 278.768 302.865 278.688 302.519C278.608 302.173 278.456 301.849 278.242 301.565C278.029 301.282 277.758 301.047 277.448 300.875C275.547 299.897 272.137 301.704 270.782 303.052C270.681 303.153 269.434 304.696 269.151 305.074C269.299 303.631 269.468 302.196 269.69 300.78C269.953 298.872 270.343 296.983 270.856 295.125C270.984 295.173 274.374 296.473 276.019 296.339C277.441 296.238 279.22 295.712 280.063 294.445C280.267 294.154 280.407 293.823 280.474 293.474C280.542 293.125 280.535 292.766 280.454 292.42C280.373 292.074 280.22 291.749 280.005 291.466C279.791 291.183 279.519 290.949 279.207 290.778C277.306 289.801 273.903 291.607 272.548 292.955C272.447 293.056 271.112 294.728 270.89 295.045C270.923 294.937 270.944 294.822 270.977 294.714C271.562 292.872 272.311 291.085 273.215 289.376C273.7 288.426 274.219 287.543 274.745 286.68C275.352 286.984 278.115 288.338 279.625 288.399C281.135 288.46 282.88 288.129 283.837 286.963C284.072 286.697 284.248 286.384 284.353 286.045C284.459 285.706 284.492 285.348 284.451 284.995C284.41 284.643 284.295 284.303 284.113 283.997C283.932 283.692 283.689 283.428 283.399 283.223C281.613 282.043 278.007 283.465 276.538 284.651C276.457 284.719 275.702 285.467 275.19 285.999C275.433 285.622 275.675 285.224 275.918 284.867C276.808 283.519 277.711 282.346 278.519 281.308C278.985 280.722 279.416 280.196 279.82 279.718C280.575 279.718 283.595 279.61 284.922 278.99C286.25 278.37 287.686 277.251 288.003 275.775C288.087 275.43 288.098 275.072 288.035 274.722C287.972 274.373 287.837 274.041 287.637 273.747C287.438 273.454 287.179 273.205 286.877 273.018C286.575 272.831 286.238 272.709 285.886 272.661C283.756 272.432 281.229 275.357 280.454 277.089C280.386 277.244 279.611 279.718 279.652 279.718H279.692C279.295 280.176 278.863 280.668 278.412 281.221C277.576 282.239 276.646 283.405 275.716 284.732C274.703 286.16 273.772 287.643 272.925 289.174C271.973 290.897 271.177 292.701 270.546 294.566V294.633C270.546 294.007 270.546 292.254 270.512 292.119C270.27 290.225 268.679 286.727 266.576 286.323C266.225 286.269 265.867 286.289 265.524 286.382C265.182 286.475 264.863 286.639 264.588 286.863C264.312 287.088 264.087 287.367 263.927 287.684C263.767 288.001 263.675 288.348 263.658 288.702C263.536 290.205 264.628 291.715 265.68 292.665C266.873 293.737 270.202 294.775 270.472 294.856C269.875 296.757 269.405 298.696 269.063 300.659C268.861 301.805 268.693 302.964 268.531 304.13C268.531 303.584 268.531 303.099 268.531 303.031C268.288 301.138 266.697 297.639 264.601 297.235C264.25 297.181 263.891 297.201 263.548 297.294C263.205 297.388 262.886 297.553 262.61 297.778C262.335 298.003 262.11 298.283 261.951 298.601C261.791 298.918 261.7 299.266 261.683 299.621C261.555 301.124 262.647 302.627 263.705 303.577C264.763 304.528 267.601 305.485 268.356 305.721C268.302 306.172 268.241 306.617 268.187 307.069C267.931 309.212 267.682 311.355 267.378 313.452C267.27 314.186 267.136 314.914 267.008 315.635C267.008 315.157 267.008 314.752 267.008 314.685C266.758 312.791 265.174 309.293 263.071 308.889C262.72 308.834 262.361 308.854 262.018 308.948C261.675 309.041 261.356 309.206 261.08 309.431C260.805 309.656 260.58 309.937 260.421 310.254C260.261 310.572 260.17 310.919 260.153 311.274C260.032 312.778 261.124 314.281 262.175 315.231C263.226 316.181 265.801 317.044 266.691 317.334C266.536 318.068 266.381 318.81 266.199 319.518C266.057 319.996 265.963 320.468 265.794 320.94C265.626 321.411 265.491 321.883 265.343 322.348C265.019 323.231 264.669 324.141 264.359 324.997C264.136 325.59 263.907 326.156 263.685 326.723C263.799 325.988 263.995 324.546 263.995 324.424C263.964 322.742 263.5 321.096 262.647 319.646C262.664 319.459 262.664 319.272 262.647 319.086C262.602 318.734 262.484 318.395 262.3 318.091C262.116 317.788 261.87 317.526 261.578 317.324C261.287 317.122 260.955 316.983 260.606 316.918C260.257 316.852 259.899 316.861 259.553 316.943C257.484 317.489 256.183 321.115 256.075 323.009C256.075 323.123 256.143 324.357 256.203 325.125C256.102 324.674 256.001 324.235 255.893 323.777C255.678 322.861 255.428 321.957 255.172 320.98C255.033 320.531 254.891 320.059 254.747 319.565C254.613 319.093 254.41 318.608 254.249 318.122C253.838 317.003 253.366 315.891 252.901 314.752C253.703 314.564 256.527 313.842 257.666 312.973C258.805 312.103 259.998 310.681 259.984 309.172C259.994 308.817 259.929 308.464 259.793 308.136C259.658 307.808 259.454 307.513 259.197 307.269C258.939 307.024 258.633 306.837 258.299 306.719C257.964 306.601 257.608 306.555 257.255 306.583C255.125 306.813 253.285 310.196 252.894 312.07C252.894 312.184 252.746 313.559 252.692 314.314C252.388 313.64 252.092 312.966 251.762 312.292C250.811 310.378 249.787 308.471 248.776 306.563C248.466 305.984 248.169 305.397 247.859 304.811C248.149 304.743 251.532 303.962 252.806 302.984C253.932 302.115 255.132 300.699 255.125 299.19C255.135 298.834 255.069 298.48 254.933 298.152C254.797 297.823 254.594 297.527 254.335 297.282C254.077 297.037 253.771 296.849 253.435 296.731C253.1 296.613 252.743 296.566 252.388 296.595C250.265 296.831 248.419 300.214 248.034 302.081C248.034 302.223 247.825 304.197 247.805 304.703C247.131 303.416 246.457 302.128 245.891 300.827C245.077 299.078 244.379 297.277 243.802 295.435C243.937 295.435 247.468 294.606 248.769 293.602C249.901 292.733 251.101 291.317 251.094 289.808C251.103 289.452 251.037 289.099 250.901 288.771C250.764 288.443 250.56 288.147 250.303 287.902C250.045 287.658 249.738 287.47 249.403 287.351C249.068 287.232 248.712 287.185 248.358 287.213C246.235 287.449 244.388 290.832 244.004 292.699C244.004 292.847 243.782 294.977 243.775 295.361C243.741 295.254 243.694 295.146 243.667 295.045C243.136 293.182 242.773 291.276 242.582 289.349C242.467 288.291 242.407 287.267 242.38 286.276C243.054 286.188 246.127 285.784 247.401 285.009C248.675 284.234 249.969 282.987 250.097 281.49C250.145 281.138 250.119 280.78 250.02 280.439C249.921 280.097 249.751 279.781 249.522 279.509C249.292 279.238 249.008 279.018 248.688 278.863C248.368 278.709 248.019 278.623 247.664 278.612C245.527 278.612 243.323 281.774 242.73 283.593C242.696 283.688 242.487 284.732 242.339 285.487C242.339 285.042 242.339 284.577 242.339 284.139C242.339 282.522 242.447 281.039 242.548 279.731C242.609 278.99 242.683 278.316 242.757 277.709C243.377 277.285 245.844 275.539 246.606 274.285C247.367 273.032 247.954 271.313 247.401 269.911C247.283 269.576 247.095 269.27 246.851 269.013C246.606 268.756 246.31 268.553 245.982 268.417C245.654 268.282 245.301 268.217 244.946 268.227C244.592 268.237 244.243 268.322 243.923 268.475C242.022 269.46 241.524 273.281 241.834 275.168C241.834 275.33 242.582 277.824 242.615 277.804C242.535 278.41 242.447 279.057 242.373 279.765C242.245 281.079 242.11 282.555 242.07 284.18C242.01 285.929 242.053 287.679 242.198 289.423C242.346 291.379 242.671 293.316 243.168 295.213V295.274C242.831 294.748 241.82 293.306 241.753 293.198C240.506 291.755 237.244 289.7 235.276 290.536C234.952 290.683 234.664 290.896 234.428 291.162C234.193 291.429 234.017 291.741 233.911 292.08C233.804 292.419 233.771 292.777 233.812 293.13C233.853 293.482 233.968 293.823 234.15 294.128C234.844 295.483 236.59 296.136 237.999 296.339Z" fill="#A3A3A3"/>
<path d="M274.664 286.296C274.698 286.296 275.338 283.802 275.338 283.64C275.601 281.746 275.001 277.938 273.073 277.008C272.75 276.863 272.399 276.788 272.045 276.787C271.69 276.786 271.339 276.86 271.015 277.004C270.691 277.147 270.401 277.358 270.163 277.621C269.925 277.884 269.746 278.194 269.636 278.532C269.117 279.954 269.771 281.693 270.546 282.886C271.483 284.274 274.657 286.296 274.664 286.296Z" fill="#A3A3A3"/>
<path d="M151.726 301.387C152.764 301.838 155.299 301.784 155.299 301.784C155.299 301.784 154.753 300.126 154.706 300.025C154.153 298.859 152.394 296.938 150.958 297.134C150.723 297.174 150.5 297.263 150.301 297.395C150.103 297.528 149.935 297.7 149.808 297.902C149.681 298.103 149.598 298.329 149.563 298.565C149.529 298.801 149.545 299.041 149.61 299.27C149.826 300.268 150.844 301.003 151.726 301.387Z" fill="#A3A3A3"/>
<path d="M152.603 308.733C153.674 308.888 155.939 308.228 156.121 308.181C156.485 309.474 156.936 310.742 157.469 311.975C157.779 312.697 158.143 313.411 158.46 314.125C158.258 313.822 158.069 313.553 158.042 313.519C157.193 312.542 154.989 311.153 153.661 311.719C153.443 311.819 153.248 311.963 153.09 312.143C152.931 312.323 152.812 312.535 152.741 312.764C152.67 312.993 152.648 313.234 152.676 313.472C152.705 313.71 152.783 313.94 152.906 314.146C153.208 314.569 153.6 314.92 154.053 315.175C154.506 315.43 155.01 315.583 155.528 315.622C156.687 315.624 157.84 315.447 158.945 315.096L159.35 315.918C160.024 317.219 160.664 318.52 161.27 319.814C161.486 320.272 161.682 320.724 161.877 321.162C161.695 320.892 161.533 320.67 161.506 320.636C160.664 319.659 158.46 318.271 157.132 318.837C156.914 318.936 156.72 319.081 156.561 319.261C156.402 319.441 156.283 319.652 156.212 319.88C156.14 320.109 156.117 320.35 156.144 320.589C156.172 320.827 156.249 321.057 156.37 321.263C156.673 321.685 157.065 322.036 157.518 322.291C157.971 322.546 158.474 322.699 158.992 322.739C160.121 322.745 161.244 322.577 162.322 322.24C162.504 322.712 162.693 323.191 162.854 323.656C162.955 323.979 163.077 324.283 163.158 324.606C163.239 324.93 163.34 325.28 163.427 325.57C163.576 326.183 163.731 326.824 163.865 327.43C163.953 327.848 164.034 328.252 164.121 328.657C163.913 328.199 163.488 327.309 163.447 327.248C162.773 326.156 160.792 324.444 159.403 324.802C159.172 324.866 158.957 324.979 158.773 325.133C158.588 325.287 158.438 325.478 158.332 325.694C158.227 325.909 158.168 326.145 158.16 326.385C158.151 326.625 158.194 326.864 158.285 327.086C158.52 327.55 158.854 327.956 159.262 328.277C159.671 328.599 160.145 328.827 160.65 328.947C161.668 329.257 163.913 328.947 164.189 328.947C164.324 329.621 164.452 330.295 164.56 330.888C164.795 332.236 164.977 333.483 165.119 334.514H166.063C165.901 333.442 165.685 332.168 165.389 330.733C165.254 330.059 165.092 329.324 164.924 328.583C165.602 328.312 166.263 328.001 166.905 327.653C167.772 328.404 168.741 329.028 169.783 329.506C169.52 330.146 169.264 330.76 169.015 331.333C168.489 332.539 167.99 333.604 167.552 334.514H168.577C168.954 333.678 169.372 332.721 169.803 331.663C170.066 331.023 170.336 330.315 170.605 329.641C170.882 329.695 173.099 330.146 174.137 329.91C174.65 329.83 175.14 329.639 175.571 329.35C176.003 329.062 176.367 328.682 176.638 328.239C176.744 328.024 176.804 327.789 176.814 327.55C176.823 327.31 176.782 327.071 176.693 326.849C176.604 326.626 176.469 326.425 176.297 326.258C176.125 326.091 175.919 325.962 175.694 325.88C174.346 325.415 172.236 326.972 171.468 328.01C171.421 328.07 171.01 328.792 170.754 329.25C170.861 328.953 170.969 328.677 171.077 328.374C171.3 327.774 171.495 327.174 171.717 326.534L172.001 325.577C172.102 325.26 172.169 324.903 172.257 324.572C172.445 323.791 172.594 322.989 172.728 322.18C173.806 322.607 174.942 322.866 176.098 322.948C177.062 322.881 178.269 322.53 178.794 321.674C178.932 321.478 179.027 321.255 179.073 321.02C179.118 320.785 179.114 320.543 179.06 320.31C179.006 320.076 178.903 319.857 178.759 319.666C178.614 319.475 178.431 319.316 178.222 319.201C176.941 318.527 174.636 319.753 173.719 320.663C173.665 320.724 173.086 321.452 172.769 321.856C172.85 321.364 172.924 320.879 172.985 320.387C173.167 318.951 173.301 317.495 173.443 316.046C173.483 315.601 173.53 315.157 173.578 314.698C173.766 314.766 175.964 315.581 177.042 315.507C178.006 315.44 179.212 315.089 179.738 314.233C179.876 314.037 179.971 313.813 180.017 313.578C180.062 313.342 180.058 313.099 180.004 312.865C179.95 312.632 179.847 312.412 179.703 312.22C179.558 312.028 179.375 311.869 179.165 311.753C177.885 311.079 175.579 312.312 174.67 313.222C174.595 313.29 173.76 314.341 173.564 314.617C173.665 313.64 173.78 312.67 173.928 311.712C174.12 310.424 174.397 309.15 174.757 307.898C174.845 307.931 177.136 308.801 178.242 308.72C178.756 308.715 179.264 308.598 179.729 308.378C180.195 308.158 180.607 307.84 180.938 307.446C181.076 307.249 181.17 307.026 181.216 306.79C181.262 306.555 181.258 306.312 181.204 306.078C181.15 305.844 181.047 305.624 180.903 305.433C180.758 305.241 180.575 305.082 180.365 304.966C179.078 304.292 176.779 305.525 175.863 306.435C175.795 306.509 174.892 307.635 174.744 307.85C174.744 307.776 174.744 307.702 174.804 307.628C175.197 306.381 175.702 305.171 176.314 304.015C176.644 303.375 176.988 302.782 177.345 302.209C177.756 302.411 179.637 303.328 180.641 303.368C181.645 303.409 182.845 303.186 183.492 302.398C183.65 302.217 183.769 302.005 183.839 301.776C183.91 301.547 183.932 301.305 183.904 301.066C183.875 300.828 183.797 300.598 183.673 300.392C183.55 300.186 183.385 300.008 183.189 299.87C181.989 299.075 179.57 300.032 178.559 300.841C178.505 300.881 177.992 301.387 177.628 301.764C177.797 301.508 177.959 301.239 178.12 300.996C178.72 300.086 179.334 299.291 179.88 298.59C180.19 298.192 180.479 297.842 180.756 297.518C181.268 297.518 183.31 297.444 184.2 297.026C185.09 296.608 186.074 295.853 186.283 294.856C186.341 294.623 186.349 294.38 186.307 294.144C186.265 293.908 186.173 293.683 186.038 293.485C185.904 293.286 185.728 293.118 185.524 292.992C185.32 292.866 185.092 292.785 184.854 292.753C183.418 292.598 181.713 294.566 181.187 295.745C181.14 295.847 180.614 297.518 180.641 297.518C180.365 297.828 180.082 298.158 179.772 298.529C179.212 299.203 178.579 300.005 177.952 300.908C177.267 301.871 176.639 302.872 176.071 303.908C175.432 305.066 174.893 306.276 174.461 307.527C174.464 307.543 174.464 307.559 174.461 307.574C174.461 307.15 174.461 305.97 174.461 305.876C174.292 304.595 173.22 302.223 171.805 301.96C171.568 301.923 171.325 301.936 171.093 301.999C170.861 302.061 170.644 302.173 170.458 302.324C170.272 302.476 170.12 302.666 170.011 302.881C169.903 303.095 169.842 303.33 169.83 303.571C169.749 304.588 170.504 305.593 171.178 306.267C171.852 306.941 174.238 307.689 174.413 307.743C174.013 309.028 173.696 310.339 173.463 311.665C173.328 312.44 173.214 313.222 173.106 314.011C173.106 313.64 173.106 313.337 173.106 313.269C172.944 311.989 171.872 309.616 170.45 309.353C170.213 309.317 169.971 309.331 169.739 309.395C169.507 309.458 169.292 309.569 169.106 309.721C168.92 309.873 168.767 310.062 168.659 310.276C168.55 310.49 168.488 310.725 168.475 310.964C168.395 311.975 169.149 312.986 169.823 313.66C170.791 314.3 171.85 314.788 172.964 315.109C172.924 315.406 172.883 315.709 172.85 316.013C172.675 317.462 172.513 318.911 172.304 320.319C172.23 320.818 172.142 321.31 172.054 321.796C172.054 321.472 172.054 321.202 172.054 321.155C171.893 319.881 170.821 317.502 169.399 317.239C169.161 317.202 168.919 317.215 168.687 317.278C168.455 317.341 168.238 317.452 168.052 317.604C167.866 317.756 167.714 317.946 167.605 318.16C167.497 318.375 167.435 318.61 167.424 318.85C167.439 319.371 167.567 319.882 167.8 320.347C168.033 320.813 168.364 321.222 168.772 321.546C169.708 322.172 170.736 322.65 171.819 322.962C171.717 323.46 171.61 323.959 171.488 324.438C171.394 324.761 171.327 325.112 171.219 325.401C171.111 325.691 171.01 326.035 170.909 326.352C170.693 326.945 170.471 327.565 170.235 328.138C170.08 328.542 169.925 328.926 169.77 329.304C169.85 328.812 169.979 327.841 169.985 327.754C169.965 326.62 169.659 325.509 169.096 324.525C169.105 324.4 169.105 324.273 169.096 324.148C169.066 323.91 168.987 323.68 168.863 323.475C168.738 323.269 168.572 323.093 168.375 322.956C168.178 322.819 167.954 322.725 167.718 322.681C167.482 322.637 167.24 322.643 167.006 322.699C165.611 323.069 164.728 325.523 164.661 326.81C164.661 326.884 164.708 327.713 164.748 328.239C164.674 327.936 164.613 327.639 164.533 327.329C164.391 326.709 164.223 326.096 164.047 325.435C163.953 325.125 163.859 324.802 163.757 324.485C163.656 324.168 163.535 323.811 163.42 323.507C163.144 322.753 162.827 321.998 162.497 321.25C163.625 321.017 164.71 320.61 165.712 320.043C166.48 319.457 167.289 318.5 167.283 317.482C167.289 317.242 167.245 317.003 167.153 316.781C167.061 316.56 166.924 316.36 166.75 316.194C166.575 316.029 166.368 315.902 166.142 315.822C165.916 315.742 165.675 315.711 165.436 315.73C164 315.885 162.74 318.176 162.49 319.437C162.49 319.517 162.389 320.441 162.356 320.953C162.153 320.501 161.944 320.057 161.722 319.605C161.048 318.311 160.374 317.024 159.7 315.736C159.491 315.345 159.282 314.948 159.08 314.55C159.275 314.51 161.56 313.977 162.416 313.317C163.272 312.656 163.993 311.773 163.987 310.755C163.993 310.515 163.949 310.277 163.857 310.055C163.765 309.833 163.628 309.633 163.454 309.468C163.28 309.303 163.073 309.176 162.846 309.096C162.62 309.016 162.379 308.984 162.14 309.003C160.704 309.158 159.444 311.443 159.195 312.71C159.195 312.804 159.053 314.139 159.039 314.483C158.588 313.606 158.15 312.737 157.745 311.861C157.2 310.678 156.73 309.463 156.337 308.221C156.424 308.221 158.81 307.655 159.707 306.981C160.468 306.395 161.284 305.438 161.277 304.413C161.284 304.173 161.24 303.935 161.148 303.713C161.056 303.492 160.918 303.292 160.744 303.127C160.57 302.963 160.363 302.837 160.136 302.757C159.91 302.678 159.669 302.647 159.43 302.667C157.995 302.822 156.734 305.107 156.485 306.374C156.485 306.469 156.337 307.904 156.33 308.167C156.33 308.1 156.276 308.026 156.256 307.952C155.899 306.695 155.656 305.409 155.528 304.11C155.447 303.389 155.407 302.701 155.386 302.027C155.845 301.973 157.921 301.697 158.756 301.178C159.592 300.659 160.495 299.83 160.596 298.799C160.63 298.561 160.613 298.32 160.546 298.089C160.48 297.859 160.366 297.645 160.211 297.462C160.056 297.279 159.865 297.131 159.649 297.026C159.433 296.922 159.198 296.865 158.959 296.858C157.51 296.858 156.02 298.994 155.622 300.228C155.622 300.288 155.461 300.996 155.359 301.508C155.359 301.205 155.359 300.888 155.359 300.598C155.359 299.506 155.434 298.509 155.501 297.619C155.541 297.12 155.589 296.662 155.643 296.271C156.624 295.642 157.501 294.864 158.244 293.966C158.743 293.144 159.154 291.944 158.783 291.007C158.702 290.781 158.575 290.574 158.409 290.4C158.242 290.227 158.041 290.09 157.819 289.999C157.596 289.908 157.357 289.865 157.117 289.873C156.877 289.88 156.641 289.938 156.424 290.043C155.144 290.717 154.807 293.285 155.016 294.559C155.016 294.667 155.521 296.352 155.541 296.339C155.488 296.743 155.427 297.181 155.38 297.687C155.292 298.569 155.198 299.574 155.177 300.672C155.132 301.852 155.159 303.034 155.258 304.211C155.37 305.531 155.596 306.839 155.932 308.12V308.167C155.703 307.81 155.036 306.819 154.975 306.765C154.126 305.788 151.929 304.4 150.594 304.966C150.376 305.065 150.181 305.21 150.023 305.39C149.865 305.57 149.746 305.781 149.675 306.01C149.603 306.239 149.581 306.481 149.61 306.719C149.638 306.957 149.716 307.186 149.839 307.392C150.473 308.147 151.646 308.592 152.603 308.733Z" fill="#A3A3A3"/>
<path d="M177.366 301.946C177.366 301.946 177.831 300.261 177.844 300.147C178.019 298.873 177.615 296.298 176.314 295.671C176.095 295.574 175.858 295.523 175.618 295.523C175.378 295.522 175.141 295.572 174.922 295.67C174.703 295.767 174.506 295.909 174.346 296.087C174.185 296.265 174.063 296.475 173.989 296.703C173.638 297.66 174.083 298.832 174.602 299.641C175.222 300.592 177.366 301.946 177.366 301.946Z" fill="#A3A3A3"/>
<path d="M327.175 299.513C328.274 299.992 330.95 299.931 330.957 299.931C330.963 299.931 330.377 298.179 330.33 298.078C329.737 296.844 327.883 294.815 326.367 295.018C326.117 295.06 325.879 295.153 325.667 295.293C325.456 295.433 325.276 295.615 325.14 295.828C325.003 296.042 324.913 296.281 324.875 296.532C324.836 296.782 324.851 297.038 324.918 297.282C325.174 298.327 326.245 299.102 327.175 299.513Z" fill="#A3A3A3"/>
<path d="M328.106 307.271C329.238 307.439 331.631 306.745 331.819 306.691C332.211 308.059 332.695 309.399 333.268 310.702C333.599 311.463 333.942 312.218 334.32 312.973C334.097 312.656 333.902 312.373 333.868 312.333C332.979 311.301 330.653 309.839 329.245 310.432C329.014 310.538 328.809 310.691 328.642 310.882C328.474 311.072 328.349 311.296 328.273 311.538C328.198 311.78 328.174 312.035 328.203 312.287C328.232 312.539 328.314 312.782 328.443 313C328.962 313.943 330.208 314.409 331.213 314.557C332.217 314.705 334.286 314.152 334.825 314.004L335.25 314.867C335.924 316.215 336.638 317.617 337.272 318.985C337.494 319.464 337.703 319.949 337.912 320.427L337.521 319.875C336.632 318.843 334.3 317.374 332.898 317.974C332.668 318.08 332.462 318.233 332.295 318.424C332.128 318.614 332.002 318.838 331.926 319.08C331.851 319.322 331.827 319.577 331.856 319.829C331.885 320.081 331.967 320.324 332.096 320.542C332.615 321.486 333.855 321.951 334.866 322.099C336.057 322.106 337.242 321.926 338.377 321.566C338.58 322.072 338.775 322.571 338.944 323.063C339.051 323.406 339.179 323.737 339.267 324.067L339.55 325.085C339.705 325.759 339.874 326.433 340.008 327.046C340.11 327.491 340.19 327.916 340.278 328.347C340.062 327.862 339.604 326.931 339.564 326.857C338.836 325.705 336.76 323.898 335.284 324.276C335.04 324.344 334.813 324.464 334.618 324.626C334.423 324.789 334.265 324.99 334.153 325.218C334.042 325.446 333.98 325.695 333.972 325.948C333.963 326.202 334.008 326.454 334.104 326.689C334.468 327.7 335.627 328.354 336.605 328.65C337.582 328.947 340.042 328.65 340.339 328.65C340.487 329.358 340.615 330.052 340.73 330.706C340.986 332.148 341.174 333.442 341.323 334.534H342.32C342.145 333.402 341.916 332.054 341.646 330.537C341.505 329.816 341.336 329.055 341.161 328.266C341.875 327.981 342.57 327.653 343.244 327.282C344.162 328.076 345.187 328.736 346.29 329.243C346.014 329.917 345.744 330.591 345.481 331.171C344.922 332.445 344.396 333.577 343.938 334.541H344.996C345.394 333.658 345.832 332.647 346.29 331.535C346.573 330.861 346.856 330.119 347.139 329.371C347.429 329.425 349.775 329.904 350.873 329.661C351.864 329.432 353.064 328.873 353.509 327.889C353.622 327.661 353.685 327.413 353.696 327.16C353.706 326.906 353.663 326.654 353.569 326.418C353.474 326.183 353.331 325.97 353.149 325.793C352.967 325.617 352.75 325.481 352.511 325.395C351.069 324.909 348.858 326.554 348.049 327.646C348.002 327.713 347.564 328.475 347.294 328.953C347.409 328.65 347.524 328.347 347.638 328.03C347.867 327.403 348.083 326.77 348.312 326.082L348.615 325.078C348.723 324.741 348.791 324.37 348.885 324.02C349.08 323.191 349.242 322.348 349.384 321.492C349.936 321.688 351.905 322.375 352.922 322.301C353.94 322.227 355.214 321.856 355.8 320.953C355.945 320.746 356.045 320.51 356.093 320.261C356.141 320.013 356.136 319.757 356.079 319.51C356.022 319.264 355.913 319.032 355.761 318.83C355.608 318.628 355.415 318.46 355.194 318.338C353.846 317.664 351.406 318.931 350.442 319.888C350.381 319.949 349.768 320.717 349.431 321.142C349.512 320.63 349.599 320.117 349.66 319.592C349.849 318.082 349.997 316.538 350.145 315.008C350.186 314.537 350.24 314.072 350.287 313.606C350.482 313.674 352.808 314.543 353.947 314.462C354.964 314.388 356.238 314.018 356.825 313.114C356.971 312.907 357.071 312.672 357.12 312.423C357.169 312.174 357.164 311.918 357.107 311.671C357.05 311.424 356.941 311.192 356.788 310.99C356.634 310.788 356.44 310.621 356.218 310.499C354.87 309.825 352.43 311.086 351.466 312.05C351.392 312.117 350.509 313.229 350.3 313.519C350.408 312.488 350.523 311.463 350.685 310.452C350.889 309.087 351.181 307.736 351.561 306.408C351.655 306.449 354.075 307.358 355.241 307.278C356.259 307.203 357.532 306.833 358.119 305.93C358.264 305.722 358.363 305.486 358.412 305.238C358.46 304.989 358.455 304.734 358.398 304.487C358.34 304.24 358.232 304.009 358.08 303.807C357.927 303.605 357.734 303.437 357.512 303.314C356.164 302.64 353.724 303.901 352.761 304.865C352.686 304.939 351.736 306.132 351.574 306.354C351.574 306.28 351.615 306.199 351.635 306.125C352.052 304.808 352.586 303.531 353.232 302.31C353.583 301.636 353.953 301.003 354.324 300.396C354.756 300.612 356.751 301.582 357.809 301.623C358.867 301.663 360.134 301.434 360.815 300.598C360.987 300.407 361.116 300.182 361.194 299.937C361.272 299.692 361.297 299.434 361.267 299.179C361.237 298.923 361.153 298.678 361.02 298.457C360.888 298.237 360.71 298.048 360.498 297.902C359.231 297.06 356.67 298.071 355.605 298.92L354.627 299.897C354.796 299.628 354.971 299.345 355.14 299.089C355.78 298.131 356.42 297.289 357 296.548C357.33 296.13 357.64 295.759 357.93 295.415C358.463 295.415 360.626 295.341 361.57 294.896C362.513 294.451 363.545 293.656 363.767 292.605C363.828 292.358 363.836 292.102 363.792 291.853C363.747 291.603 363.651 291.366 363.508 291.156C363.366 290.946 363.181 290.769 362.965 290.635C362.75 290.501 362.508 290.415 362.257 290.38C360.741 290.219 358.934 292.295 358.382 293.541C358.334 293.649 357.775 295.415 357.809 295.415C357.526 295.739 357.222 296.096 356.899 296.487C356.299 297.215 355.638 298.044 354.978 298.994C354.253 300.01 353.589 301.067 352.99 302.162C352.308 303.384 351.737 304.666 351.284 305.99C351.287 306.006 351.287 306.022 351.284 306.037C351.284 305.593 351.284 304.339 351.284 304.245C351.109 302.897 349.977 300.389 348.474 300.106C348.224 300.068 347.968 300.083 347.724 300.15C347.48 300.217 347.252 300.334 347.056 300.494C346.86 300.654 346.699 300.853 346.585 301.079C346.47 301.305 346.404 301.552 346.391 301.805C346.304 302.883 347.065 303.955 347.84 304.636C348.615 305.316 351.076 306.139 351.264 306.199C350.835 307.556 350.499 308.941 350.26 310.344C350.112 311.16 349.99 311.989 349.883 312.818C349.883 312.427 349.883 312.083 349.883 312.036C349.707 310.688 348.575 308.174 347.072 307.898C346.821 307.861 346.564 307.877 346.319 307.945C346.075 308.014 345.847 308.133 345.651 308.295C345.456 308.457 345.296 308.658 345.183 308.886C345.07 309.114 345.007 309.362 344.996 309.616C344.908 310.688 345.67 311.766 346.445 312.44C347.22 313.114 349.229 313.788 349.768 313.977C349.728 314.294 349.68 314.611 349.647 314.928C349.465 316.464 349.283 317.987 349.067 319.484C348.993 320.009 348.898 320.528 348.804 321.041C348.804 320.704 348.804 320.414 348.804 320.367C348.629 319.019 347.497 316.511 345.994 316.228C345.743 316.19 345.488 316.205 345.244 316.272C344.999 316.339 344.772 316.456 344.576 316.616C344.379 316.776 344.219 316.975 344.104 317.201C343.99 317.427 343.924 317.674 343.911 317.927C343.823 319.005 344.585 320.077 345.36 320.758C346.35 321.421 347.437 321.926 348.582 322.254C348.474 322.78 348.366 323.305 348.231 323.811C348.137 324.155 348.063 324.485 347.948 324.829L347.625 325.833C347.395 326.466 347.16 327.113 346.951 327.727C346.789 328.151 346.62 328.549 346.459 328.953C346.539 328.434 346.681 327.403 346.681 327.316C346.642 326.111 346.294 324.936 345.67 323.905C345.68 323.773 345.68 323.64 345.67 323.508C345.639 323.256 345.555 323.014 345.424 322.797C345.293 322.581 345.118 322.394 344.91 322.25C344.702 322.105 344.466 322.006 344.217 321.959C343.968 321.913 343.712 321.919 343.466 321.978C341.99 322.368 341.053 324.957 340.986 326.318C340.986 326.399 341.033 327.275 341.073 327.828C340.999 327.504 340.932 327.194 340.851 326.864C340.696 326.19 340.521 325.563 340.339 324.842C340.238 324.505 340.137 324.168 340.035 323.831C339.934 323.494 339.793 323.157 339.678 322.8C339.388 322.005 339.051 321.209 338.694 320.421C339.267 320.279 341.289 319.747 342.098 319.14C342.907 318.533 343.763 317.509 343.756 316.444C343.762 316.19 343.715 315.938 343.618 315.704C343.521 315.47 343.375 315.259 343.191 315.084C343.006 314.91 342.787 314.777 342.548 314.693C342.308 314.609 342.054 314.576 341.801 314.597C340.285 314.766 338.97 317.179 338.694 318.513C338.694 318.594 338.586 319.578 338.553 320.117C338.33 319.639 338.121 319.167 337.879 318.695C337.205 317.347 336.47 315.999 335.749 314.604L335.075 313.357C335.277 313.31 337.697 312.744 338.6 312.05C339.503 311.355 340.265 310.418 340.258 309.354C340.265 309.1 340.219 308.848 340.123 308.614C340.026 308.38 339.881 308.169 339.697 307.994C339.513 307.82 339.295 307.686 339.056 307.602C338.817 307.518 338.562 307.486 338.31 307.507C336.793 307.669 335.472 310.088 335.196 311.423C335.196 311.524 335.048 312.932 335.034 313.29C334.556 312.373 334.091 311.45 333.686 310.526C333.108 309.277 332.611 307.991 332.197 306.678C332.291 306.678 334.812 306.085 335.742 305.37C336.551 304.75 337.407 303.739 337.4 302.674C337.407 302.421 337.361 302.168 337.265 301.934C337.168 301.699 337.023 301.488 336.84 301.313C336.656 301.138 336.437 301.004 336.198 300.919C335.959 300.834 335.705 300.801 335.452 300.821C333.936 300.989 332.615 303.402 332.345 304.737C332.345 304.844 332.183 306.361 332.177 306.637C332.177 306.563 332.123 306.482 332.102 306.408C331.722 305.086 331.462 303.733 331.327 302.364C331.24 301.609 331.206 300.881 331.179 300.174C331.664 300.113 333.875 299.823 334.765 299.27C335.654 298.718 336.598 297.828 336.706 296.756C336.737 296.508 336.716 296.255 336.644 296.015C336.571 295.775 336.45 295.553 336.287 295.362C336.124 295.172 335.923 295.018 335.697 294.91C335.47 294.802 335.224 294.742 334.974 294.734C333.45 294.734 331.873 296.986 331.455 298.286C331.455 298.354 331.28 299.095 331.172 299.634C331.172 299.311 331.172 298.96 331.172 298.671C331.172 297.518 331.246 296.46 331.321 295.53C331.368 294.997 331.415 294.519 331.469 294.067C331.914 293.764 333.673 292.517 334.219 291.627C334.765 290.738 335.183 289.504 334.785 288.507C334.7 288.267 334.566 288.049 334.391 287.865C334.216 287.681 334.005 287.536 333.77 287.439C333.535 287.343 333.283 287.296 333.029 287.304C332.776 287.311 332.526 287.372 332.298 287.482C330.95 288.156 330.586 290.913 330.815 292.254C330.815 292.369 331.341 294.155 331.368 294.141C331.307 294.573 331.246 295.031 331.193 295.537C331.098 296.473 331.004 297.559 330.977 298.691C330.937 299.938 330.966 301.187 331.064 302.432C331.167 303.826 331.393 305.208 331.738 306.563V306.61C331.496 306.233 330.788 305.202 330.727 305.128C329.831 304.096 327.506 302.627 326.104 303.227C325.873 303.332 325.667 303.484 325.499 303.673C325.331 303.863 325.205 304.086 325.13 304.328C325.054 304.57 325.03 304.825 325.06 305.076C325.089 305.328 325.172 305.571 325.302 305.788C325.854 306.658 327.095 307.129 328.106 307.271Z" fill="#A3A3A3"/>
<path d="M354.27 300.106C354.27 300.106 354.756 298.327 354.769 298.206C354.958 296.858 354.526 294.162 353.158 293.488C352.926 293.384 352.676 293.331 352.422 293.331C352.168 293.331 351.917 293.384 351.686 293.487C351.454 293.59 351.246 293.74 351.076 293.928C350.906 294.117 350.777 294.338 350.698 294.579C350.327 295.59 350.799 296.831 351.372 297.687C351.999 298.677 354.264 300.106 354.27 300.106Z" fill="#A3A3A3"/>
<path d="M302.15 334.521L347.773 241.927H256.534L302.15 334.521Z" fill="white" stroke="#263238" stroke-width="0.674" stroke-linecap="round" stroke-linejoin="round"/>
<path d="M302.15 334.521L290.368 241.927H347.773L302.15 334.521Z" fill="#263238" stroke="#263238" stroke-width="0.674" stroke-linecap="round" stroke-linejoin="round"/>
<path d="M302.15 241.846C323.293 241.846 340.433 224.706 340.433 203.563C340.433 182.419 323.293 165.279 302.15 165.279C281.007 165.279 263.867 182.419 263.867 203.563C263.867 224.706 281.007 241.846 302.15 241.846Z" fill="white" stroke="#263238" stroke-width="0.674" stroke-linecap="round" stroke-linejoin="round"/>
<path d="M336.315 201.062C335.755 193.277 332.544 185.919 327.216 180.215L336.315 201.062Z" fill="white"/>
<path d="M336.315 201.062C335.755 193.277 332.544 185.919 327.216 180.215" stroke="#263238" stroke-width="0.674" stroke-linecap="round" stroke-linejoin="round"/>
<path d="M322.08 175.679C319.549 173.869 316.782 172.414 313.857 171.352L322.08 175.679Z" fill="white"/>
<path d="M322.08 175.679C319.549 173.869 316.782 172.414 313.857 171.352" stroke="#263238" stroke-width="0.674" stroke-linecap="round" stroke-linejoin="round"/>
<path d="M334.212 182.601C337.41 191.433 337.249 201.132 333.761 209.853C330.272 218.574 323.7 225.708 315.293 229.898C306.887 234.088 297.233 235.041 288.17 232.576C279.106 230.112 271.265 224.401 266.138 216.53C267.976 221.606 270.866 226.235 274.62 230.115C278.373 233.995 282.904 237.037 287.916 239.042C292.928 241.046 298.307 241.968 303.701 241.748C309.094 241.527 314.38 240.168 319.211 237.76C324.043 235.352 328.31 231.949 331.734 227.776C335.157 223.602 337.659 218.752 339.076 213.543C340.492 208.334 340.791 202.884 339.953 197.552C339.115 192.219 337.158 187.124 334.212 182.601Z" fill="#263238" stroke="#263238" stroke-width="0.674" stroke-linecap="round" stroke-linejoin="round"/>
<path d="M136.791 202.471H88.1346V251.127H136.791V202.471Z" fill="#263238" stroke="#263238" stroke-width="0.674" stroke-linecap="round" stroke-linejoin="round"/>
<path d="M115.331 202.471H76.6902V251.127H115.331V202.471Z" fill="white" stroke="#263238" stroke-width="0.674" stroke-linecap="round" stroke-linejoin="round"/>
<path d="M167.653 251.086H84.2186V334.521H167.653V251.086Z" fill="#263238" stroke="#263238" stroke-width="0.674" stroke-linecap="round" stroke-linejoin="round"/>
<path d="M130.846 251.086H64.5917V334.521H130.846V251.086Z" fill="white" stroke="#263238" stroke-width="0.674" stroke-linecap="round" stroke-linejoin="round"/>
<path d="M242.595 117.971L214.658 94.5969L178.619 114.291L206.563 138.683L242.595 117.971Z" fill="#90CAF9" stroke="#263238" stroke-width="0.674" stroke-linecap="round" stroke-linejoin="round"/>
<path d="M271.085 51.1307L248.547 64.1793" stroke="#263238" stroke-width="0.674" stroke-linecap="round" stroke-linejoin="round"/>
<path d="M275.85 48.374L273.545 49.7085" stroke="#263238" stroke-width="0.674" stroke-linecap="round" stroke-linejoin="round"/>
<path d="M235.134 67.3134V33.8358L263.071 57.2169V90.6944L235.134 67.3134Z" fill="#90CAF9" stroke="#263238" stroke-width="0.674" stroke-linecap="round" stroke-linejoin="round"/>
<path d="M158.5 47.3563L174.838 60.8497" stroke="#263238" stroke-width="0.674" stroke-linecap="round" stroke-linejoin="round"/>
<path d="M154.793 44.2963L156.593 45.7791" stroke="#263238" stroke-width="0.674" stroke-linecap="round" stroke-linejoin="round"/>
<path d="M198.967 33.4045V66.8753L162.935 86.5696V53.0988L198.967 33.4045Z" fill="#90CAF9" stroke="#263238" stroke-width="0.674" stroke-linecap="round" stroke-linejoin="round"/>
<path d="M214.658 47.3428L178.619 67.0371V100.515L206.563 124.913L242.595 104.201V70.7239L214.658 47.3428Z" stroke="#263238" stroke-width="0.674" stroke-linecap="round" stroke-linejoin="round" stroke-dasharray="2.02 2.02"/>
<path d="M178.619 67.0371L206.563 91.4359L242.029 70.8991" stroke="#263238" stroke-width="0.674" stroke-linecap="round" stroke-linejoin="round" stroke-dasharray="2.02 2.02"/>
<path d="M206.563 91.4359V124.913" stroke="#263238" stroke-width="0.674" stroke-linecap="round" stroke-linejoin="round" stroke-dasharray="2.02 2.02"/>
<path d="M214.658 47.3428V80.8204L236.354 98.7623" stroke="#263238" stroke-width="0.674" stroke-linecap="round" stroke-linejoin="round" stroke-dasharray="2.02 2.02"/>
<path d="M214.658 80.8204L183.472 97.6973" stroke="#263238" stroke-width="0.674" stroke-linecap="round" stroke-linejoin="round" stroke-dasharray="2.02 2.02"/>
<path d="M161.628 79.2365V112.714L189.572 137.113V103.635L161.628 79.2365Z" fill="#90CAF9" stroke="#263238" stroke-width="0.674" stroke-linecap="round" stroke-linejoin="round"/>
<path d="M149.765 121.045L147.898 122.13" stroke="#263238" stroke-width="0.674" stroke-linecap="round" stroke-linejoin="round"/>
<path d="M171.596 108.407L151.733 119.906" stroke="#263238" stroke-width="0.674" stroke-linecap="round" stroke-linejoin="round"/>
<path d="M175.202 106.324L173.294 107.43" stroke="#263238" stroke-width="0.674" stroke-linecap="round" stroke-linejoin="round"/>
<path d="M221.971 141.386V107.908L258.009 87.1964V120.674L221.971 141.386Z" fill="#90CAF9" stroke="#263238" stroke-width="0.674" stroke-linecap="round" stroke-linejoin="round"/>
<path d="M261.716 132.017L263.799 133.743" stroke="#263238" stroke-width="0.674" stroke-linecap="round" stroke-linejoin="round"/>
<path d="M241.065 114.878L260.315 130.851" stroke="#263238" stroke-width="0.674" stroke-linecap="round" stroke-linejoin="round"/>
<path d="M242.595 52.8629L214.658 29.4818L178.619 49.1761L206.563 73.5749L242.595 52.8629Z" fill="#90CAF9" stroke="#263238" stroke-width="0.674" stroke-linecap="round" stroke-linejoin="round"/>
<path d="M210.129 25.2625V21.6364" stroke="#263238" stroke-width="0.674" stroke-linecap="round" stroke-linejoin="round"/>
<path d="M210.129 49.9579V27.8102" stroke="#263238" stroke-width="0.674" stroke-linecap="round" stroke-linejoin="round"/>
<path d="M187.556 322.409C187.556 322.409 184.011 328.104 183 328.994C181.989 329.884 179.455 331.777 178.437 332.795C177.419 333.813 178.693 335.073 179.832 335.201C180.971 335.329 194.775 335.201 194.775 335.201C194.775 335.201 196.298 334.945 196.426 334.184C196.554 333.422 197.181 331.144 196.298 329.122C195.743 327.752 195.441 326.293 195.408 324.815L195.665 324.181L195.408 322.658L187.556 322.409Z" fill="white" stroke="#263238" stroke-width="0.674" stroke-linecap="round" stroke-linejoin="round"/>
<path d="M179.866 335.201C181.005 335.33 194.809 335.201 194.809 335.201C194.809 335.201 196.332 334.945 196.46 334.184C196.675 333.244 196.786 332.283 196.79 331.319C194.701 331.939 192.584 332.795 192.584 332.795H178.437C177.426 333.806 178.693 335.073 179.866 335.201Z" fill="white" stroke="#263238" stroke-width="0.674" stroke-linecap="round" stroke-linejoin="round"/>
<path d="M193.204 331.501L192.22 334.925" stroke="#263238" stroke-width="0.674" stroke-linecap="round" stroke-linejoin="round"/>
<path d="M189.127 329.951C189.047 329.95 188.969 329.932 188.898 329.897C186.269 328.731 184.557 329.526 184.483 329.567C184.348 329.634 184.192 329.645 184.049 329.597C183.906 329.548 183.788 329.446 183.721 329.311C183.654 329.176 183.644 329.02 183.692 328.877C183.74 328.734 183.842 328.616 183.977 328.549C184.072 328.502 186.215 327.471 189.369 328.866C189.489 328.918 189.587 329.01 189.646 329.126C189.706 329.241 189.724 329.374 189.697 329.502C189.67 329.629 189.6 329.744 189.499 329.826C189.397 329.907 189.271 329.952 189.14 329.951H189.127Z" fill="white" stroke="#263238" stroke-width="0.674" stroke-linecap="round" stroke-linejoin="round"/>
<path d="M189.612 328.482C189.533 328.482 189.455 328.466 189.383 328.434C186.754 327.262 185.042 328.064 184.975 328.097C184.84 328.164 184.684 328.175 184.541 328.127C184.398 328.079 184.28 327.976 184.213 327.841C184.146 327.706 184.136 327.55 184.184 327.407C184.232 327.265 184.334 327.147 184.469 327.08C184.557 327.033 186.7 326.001 189.861 327.396C189.981 327.449 190.079 327.54 190.138 327.656C190.198 327.772 190.216 327.905 190.189 328.032C190.162 328.16 190.092 328.274 189.991 328.356C189.889 328.438 189.763 328.482 189.632 328.482H189.612Z" fill="white" stroke="#263238" stroke-width="0.674" stroke-linecap="round" stroke-linejoin="round"/>
<path d="M190.104 327.012C190.025 327.014 189.947 326.997 189.875 326.965C187.246 325.792 185.534 326.594 185.46 326.628C185.325 326.695 185.169 326.706 185.026 326.658C184.883 326.61 184.766 326.507 184.698 326.372C184.631 326.237 184.621 326.081 184.669 325.938C184.717 325.795 184.82 325.677 184.955 325.61C185.049 325.57 187.192 324.532 190.347 325.927C190.466 325.979 190.564 326.071 190.624 326.187C190.683 326.303 190.701 326.436 190.674 326.563C190.647 326.691 190.577 326.805 190.476 326.887C190.374 326.969 190.248 327.013 190.117 327.012H190.104Z" fill="white" stroke="#263238" stroke-width="0.674" stroke-linecap="round" stroke-linejoin="round"/>
<path d="M236.185 322.409C236.185 322.409 239.737 328.104 240.748 328.994C241.759 329.884 244.294 331.777 245.305 332.795C246.316 333.813 245.055 335.073 243.916 335.201C242.777 335.329 228.967 335.201 228.967 335.201C228.967 335.201 227.45 334.945 227.322 334.184C227.194 333.422 226.561 331.144 227.45 329.122C228.002 327.751 228.301 326.292 228.333 324.815L228.084 324.181L228.333 322.658L236.185 322.409Z" fill="white" stroke="#263238" stroke-width="0.674" stroke-linecap="round" stroke-linejoin="round"/>
<path d="M243.896 335.201C242.757 335.33 228.947 335.201 228.947 335.201C228.947 335.201 227.43 334.945 227.302 334.184C227.084 333.244 226.973 332.283 226.972 331.319C229.061 331.939 231.178 332.795 231.178 332.795H245.284C246.322 333.806 245.055 335.073 243.896 335.201Z" fill="white" stroke="#263238" stroke-width="0.674" stroke-linecap="round" stroke-linejoin="round"/>
<path d="M230.544 331.501L231.521 334.925" stroke="#263238" stroke-width="0.674" stroke-linecap="round" stroke-linejoin="round"/>
<path d="M234.622 329.951C234.701 329.949 234.779 329.931 234.851 329.897C237.479 328.731 239.191 329.526 239.266 329.567C239.401 329.633 239.556 329.643 239.698 329.594C239.841 329.546 239.958 329.442 240.024 329.307C240.09 329.172 240.1 329.017 240.051 328.875C240.002 328.732 239.899 328.615 239.764 328.549C239.677 328.502 237.533 327.471 234.372 328.866C234.304 328.896 234.242 328.939 234.191 328.993C234.139 329.047 234.099 329.11 234.072 329.18C234.045 329.249 234.032 329.323 234.034 329.398C234.036 329.472 234.052 329.546 234.083 329.614C234.129 329.717 234.205 329.804 234.301 329.864C234.397 329.924 234.509 329.954 234.622 329.951Z" fill="white" stroke="#263238" stroke-width="0.674" stroke-linecap="round" stroke-linejoin="round"/>
<path d="M234.13 328.482C234.209 328.483 234.287 328.467 234.359 328.434C236.988 327.262 238.706 328.064 238.774 328.097C238.909 328.164 239.065 328.175 239.208 328.127C239.35 328.079 239.468 327.976 239.535 327.841C239.602 327.706 239.613 327.55 239.565 327.407C239.517 327.265 239.414 327.147 239.279 327.08C239.185 327.033 237.048 326.001 233.887 327.396C233.768 327.449 233.67 327.54 233.61 327.656C233.55 327.772 233.533 327.905 233.559 328.032C233.586 328.16 233.657 328.274 233.758 328.356C233.859 328.438 233.986 328.482 234.116 328.482H234.13Z" fill="white" stroke="#263238" stroke-width="0.674" stroke-linecap="round" stroke-linejoin="round"/>
<path d="M233.644 327.012C233.723 327.013 233.801 326.997 233.874 326.965C236.502 325.792 238.214 326.594 238.288 326.628C238.423 326.692 238.577 326.701 238.718 326.653C238.858 326.605 238.975 326.504 239.043 326.372C239.107 326.237 239.116 326.082 239.069 325.94C239.021 325.798 238.92 325.68 238.787 325.61C238.699 325.57 236.556 324.532 233.395 325.927C233.276 325.979 233.178 326.071 233.118 326.187C233.058 326.303 233.04 326.436 233.067 326.563C233.094 326.691 233.164 326.805 233.266 326.887C233.367 326.969 233.494 327.013 233.624 327.012H233.644Z" fill="white" stroke="#263238" stroke-width="0.674" stroke-linecap="round" stroke-linejoin="round"/>
<path d="M238.619 318.783C237.932 317.278 237.169 315.809 236.334 314.382C236.63 313.042 236.795 311.676 236.826 310.304C236.826 308.343 234.622 298.725 234.622 298.725L234.514 298.853C234.15 295.139 233.685 292.045 233.584 291.634C233.409 290.96 228.765 242.924 228.765 242.924L227.215 230.704L211.888 231.459L196.568 230.704L195.018 242.924C195.018 242.924 190.367 290.947 190.199 291.634C190.07 292.133 189.403 296.608 189.046 301.326C188.52 304.144 187.658 308.949 187.658 310.304C187.686 311.648 187.844 312.987 188.129 314.301C188.132 314.352 188.132 314.404 188.129 314.456C187.309 315.858 186.562 317.303 185.892 318.783C185.561 319.76 186.337 324.364 186.337 324.364H186.404V324.485L189.262 324.586C189.888 324.647 190.61 324.721 191.284 324.808C192.864 325.011 194.405 325.452 195.853 326.116L199.116 320.245L197.97 317.637L199.277 309.967L199.163 309.846L206.759 279.232L211.928 255.326L217.098 279.232L225.799 312.966L226.595 317.637L225.449 320.245L228.711 326.116C230.159 325.45 231.7 325.009 233.281 324.808C235.889 324.485 238.208 324.357 238.208 324.357C238.208 324.357 238.942 319.76 238.619 318.783Z" fill="#263238" stroke="#263238" stroke-width="0.674" stroke-linecap="round" stroke-linejoin="round"/>
<path d="M221.762 232.76H201.252V234.978H221.762V232.76Z" fill="#575757" stroke="#263238" stroke-width="0.674" stroke-linecap="round" stroke-linejoin="round"/>
<path d="M227.585 232.76H223.622V234.978H227.585V232.76Z" fill="#575757" stroke="#263238" stroke-width="0.674" stroke-linecap="round" stroke-linejoin="round"/>
<path d="M199.385 232.76H196.238V234.978H199.385V232.76Z" fill="#575757" stroke="#263238" stroke-width="0.674" stroke-linecap="round" stroke-linejoin="round"/>
<path d="M214.301 232.996H209.172V234.863H214.301V232.996Z" fill="white" stroke="#263238" stroke-width="0.674" stroke-linecap="round" stroke-linejoin="round"/>
<path d="M189.127 191.997C189.127 191.997 179.691 224.854 179.266 225.697C178.842 226.539 181.288 226.108 183.647 226.519C186.006 226.93 189.262 225.171 189.673 224.497C190.084 223.823 193.508 213.133 193.508 213.133L189.127 191.997Z" fill="white" stroke="#263238" stroke-width="0.674" stroke-linecap="round" stroke-linejoin="round"/>
<path d="M189.558 202.646L189.16 201.695" stroke="#263238" stroke-width="0.674" stroke-linecap="round" stroke-linejoin="round"/>
<path d="M192.652 210.141L190.01 203.744" stroke="#263238" stroke-width="0.674" stroke-linecap="round" stroke-linejoin="round"/>
<path d="M189.336 220.123L190.084 220.662L189.336 220.123Z" fill="white"/>
<path d="M189.336 220.123L190.084 220.662" stroke="#263238" stroke-width="0.674" stroke-linecap="round" stroke-linejoin="round"/>
<path d="M182.346 218.64C183.367 218.256 184.415 217.948 185.48 217.716C185.797 217.716 187.267 218.687 188.46 219.516" fill="white"/>
<path d="M182.346 218.64C183.367 218.256 184.415 217.948 185.48 217.716C185.797 217.716 187.267 218.687 188.46 219.516" stroke="#263238" stroke-width="0.674" stroke-linecap="round" stroke-linejoin="round"/>
<path d="M232.937 190.083C232.937 190.083 243.754 218.97 244.031 220.062C244.374 221.027 244.514 222.053 244.442 223.075C244.3 224.308 242.386 225.131 241.975 225.131C241.564 225.131 238.551 223.216 237.318 222.664C236.084 222.111 232.391 220.338 232.391 220.338L230.477 214.178L232.937 190.083Z" fill="white" stroke="#263238" stroke-width="0.674" stroke-linecap="round" stroke-linejoin="round"/>
<path d="M233.543 199.458L233.725 198.75" stroke="#263238" stroke-width="0.674" stroke-linecap="round" stroke-linejoin="round"/>
<path d="M230.962 209.615L233.254 200.604" stroke="#263238" stroke-width="0.674" stroke-linecap="round" stroke-linejoin="round"/>
<path d="M237.587 214.771L233.173 217.534" stroke="#263238" stroke-width="0.674" stroke-linecap="round" stroke-linejoin="round"/>
<path d="M204.595 183.781L189.127 191.997L195.833 227.597C195.833 227.597 195.287 230.88 195.698 231.567C195.98 232.005 196.352 232.378 196.79 232.659H227.046C227.046 232.659 229.068 230.745 229.068 230.334V228.554L232.903 190.082L217.61 183.976L204.595 183.781Z" fill="white" stroke="#263238" stroke-width="0.674" stroke-linecap="round" stroke-linejoin="round"/>
<path d="M208.066 185.405L210.095 191.141L207.352 226L211.645 232.807L215.345 225.407L211.524 191.141L213.917 186.005L210.452 182.183L208.066 185.405Z" fill="#263238" stroke="#263238" stroke-width="0.674" stroke-linecap="round" stroke-linejoin="round"/>
<path d="M204.366 180.748L204.002 184.569L207.23 189.826L209.616 184.091L204.366 180.748Z" fill="white" stroke="#263238" stroke-width="0.674" stroke-linecap="round" stroke-linejoin="round"/>
<path d="M211.766 184.212L213.674 190.305L217.617 183.976L215.824 180.269L211.766 184.212Z" fill="white" stroke="#263238" stroke-width="0.674" stroke-linecap="round" stroke-linejoin="round"/>
<path d="M221.573 224.585L221.027 220.338L224.721 221.026L221.573 224.585Z" fill="white" stroke="#263238" stroke-width="0.674" stroke-linecap="round" stroke-linejoin="round"/>
<path d="M211.443 211.711C210.286 211.573 209.142 211.348 208.019 211.037C206.786 210.626 205.963 211.172 206.927 212.385C207.891 213.598 211.308 214.165 211.719 214.165C211.719 214.165 212.393 217.723 214.321 218.411C215.282 218.789 216.296 219.016 217.327 219.085C217.327 219.085 218.291 220.433 219.518 220.594C220.744 220.756 223.629 222.785 223.629 222.785L224.977 219.637L221.964 217.171L218.958 211.988L216.087 211.03L213.62 210.208L211.443 211.711Z" fill="white" stroke="#263238" stroke-width="0.674" stroke-linecap="round" stroke-linejoin="round"/>
<path d="M219.113 215.411L217.88 216.645C217.963 217.003 218.008 217.369 218.014 217.737C218.014 218.283 217.057 218.283 216.37 218.283C215.656 218.308 214.952 218.118 214.348 217.737C213.795 217.326 211.605 215.411 211.605 215.411L213.937 211.3L211.881 212.648C211.387 213.579 210.79 214.452 210.102 215.25C209.279 216.072 209.003 215.115 209.003 215.115C209.003 215.115 209.825 212.513 210.351 211.832C211.13 211.01 211.953 210.232 212.818 209.5C213.363 209.417 213.917 209.417 214.462 209.5C215.419 209.642 217.334 210.734 218.156 211.28C218.912 211.827 219.486 212.591 219.801 213.47C219.88 213.786 219.925 214.109 219.935 214.434" fill="white"/>
<path d="M219.113 215.411L217.88 216.645C217.963 217.003 218.008 217.369 218.014 217.737C218.014 218.283 217.057 218.283 216.37 218.283C215.656 218.308 214.952 218.118 214.348 217.737C213.795 217.326 211.605 215.411 211.605 215.411L213.937 211.3L211.881 212.648C211.387 213.579 210.79 214.452 210.102 215.25C209.279 216.072 209.003 215.115 209.003 215.115C209.003 215.115 209.825 212.513 210.351 211.832C211.13 211.01 211.953 210.232 212.818 209.5C213.363 209.417 213.917 209.417 214.462 209.5C215.419 209.642 217.334 210.734 218.156 211.28C218.912 211.827 219.486 212.591 219.801 213.47C219.88 213.786 219.925 214.109 219.935 214.434" stroke="#263238" stroke-width="0.674" stroke-linecap="round" stroke-linejoin="round"/>
<path d="M215.548 218.148C215.322 217.63 215.275 217.051 215.413 216.503C216.043 215.375 216.729 214.28 217.468 213.221" stroke="#263238" stroke-width="0.674" stroke-linecap="round" stroke-linejoin="round"/>
<path d="M214.321 217.737C214.156 217.547 214.001 217.349 213.856 217.144C213.559 216.719 213.809 216.18 213.809 215.728C213.809 214.906 215.831 211.576 215.831 211.576" stroke="#263238" stroke-width="0.674" stroke-linecap="round" stroke-linejoin="round"/>
<path d="M241.288 217.056C241.288 217.056 244.712 222.266 244.57 223.614C244.428 224.962 243.613 227.995 242.379 227.995C241.146 227.995 235.639 227.321 231.838 226.647C228.037 225.973 225.401 225.683 225.401 225.683L221.566 224.591L224.168 218.289L226.662 218.815C227.85 218.525 229.057 218.322 230.274 218.209C232.054 218.074 237.998 216.652 237.998 216.652" fill="white"/>
<path d="M241.288 217.056C241.288 217.056 244.712 222.266 244.57 223.614C244.428 224.962 243.613 227.995 242.379 227.995C241.146 227.995 235.639 227.321 231.838 226.647C228.037 225.973 225.401 225.683 225.401 225.683L221.566 224.591L224.168 218.289L226.662 218.815C227.85 218.525 229.057 218.322 230.274 218.209C232.054 218.074 237.998 216.652 237.998 216.652" stroke="#263238" stroke-width="0.674" stroke-linecap="round" stroke-linejoin="round"/>
<path d="M226.689 219.428C226.754 220.964 226.373 222.486 225.59 223.809" stroke="#263238" stroke-width="0.674" stroke-linecap="round" stroke-linejoin="round"/>
<path d="M181.045 221.295C181.045 221.295 178.72 226.91 178.585 227.321C178.451 227.732 178.997 230.334 181.187 229.788C183.378 229.242 195.011 228.008 196.521 227.732C198.03 227.456 200.356 227.058 200.356 227.058H203.362C204.71 227.058 208.565 227.058 209.387 226.789L212.676 225.69C213.499 225.42 215.278 224.342 215.413 223.911C215.548 223.479 215.002 223.088 213.633 223.237C212.265 223.385 208.019 223.506 208.019 223.506C208.019 223.506 211.854 222.003 213.087 221.484C214.321 220.965 213.91 220.386 213.91 220.386C213.115 220.391 212.326 220.53 211.578 220.797C210.621 221.208 201.171 222.441 201.171 222.441L200.086 221.437C200.395 220.648 200.579 219.816 200.632 218.97C200.632 217.871 200.086 217.056 199.399 217.326C198.711 217.595 198.441 219.246 198.307 219.792C198.172 220.338 197.484 222.529 197.484 222.529L197.208 223.762C197.208 223.762 191.6 222.664 189.956 221.983C188.311 221.302 184.887 220.338 184.341 220.473C183.795 220.608 182.697 222.118 182.42 222.805" fill="white"/>
<path d="M181.045 221.295C181.045 221.295 178.72 226.91 178.585 227.321C178.451 227.732 178.997 230.334 181.187 229.788C183.378 229.242 195.011 228.008 196.521 227.732C198.03 227.456 200.356 227.058 200.356 227.058H203.362C204.71 227.058 208.565 227.058 209.387 226.789L212.676 225.69C213.499 225.42 215.278 224.342 215.413 223.911C215.548 223.479 215.002 223.088 213.633 223.237C212.265 223.385 208.019 223.506 208.019 223.506C208.019 223.506 211.854 222.003 213.087 221.484C214.321 220.965 213.91 220.386 213.91 220.386C213.115 220.391 212.326 220.53 211.578 220.797C210.621 221.208 201.171 222.441 201.171 222.441L200.086 221.437C200.395 220.648 200.579 219.816 200.632 218.97C200.632 217.871 200.086 217.056 199.399 217.326C198.711 217.595 198.441 219.246 198.307 219.792C198.172 220.338 197.484 222.529 197.484 222.529L197.208 223.762C197.208 223.762 191.6 222.664 189.956 221.983C188.311 221.302 184.887 220.338 184.341 220.473C183.795 220.608 182.697 222.118 182.42 222.805" stroke="#263238" stroke-width="0.674" stroke-linecap="round" stroke-linejoin="round"/>
<path d="M193.279 223.257C193.279 223.257 192.369 225.279 193.461 226.546" stroke="#263238" stroke-width="0.674" stroke-linecap="round" stroke-linejoin="round"/>
<path d="M195.233 216.045L199.412 224.517C199.486 224.67 199.602 224.799 199.746 224.89C199.891 224.981 200.057 225.029 200.228 225.029L215.426 225.184C215.576 225.186 215.723 225.15 215.856 225.081C215.989 225.013 216.103 224.912 216.188 224.789C216.273 224.666 216.326 224.524 216.344 224.376C216.362 224.228 216.343 224.077 216.289 223.937L212.986 215.31C212.919 215.136 212.801 214.987 212.647 214.882C212.492 214.778 212.31 214.722 212.124 214.724H196.042C195.888 214.728 195.738 214.77 195.604 214.847C195.471 214.924 195.359 215.034 195.279 215.165C195.199 215.296 195.152 215.445 195.144 215.599C195.136 215.753 195.167 215.906 195.233 216.045Z" fill="#90CAF9" stroke="#263238" stroke-width="0.674" stroke-linecap="round" stroke-linejoin="round"/>
<path d="M213.633 223.216C212.285 223.351 208.019 223.486 208.019 223.486C208.019 223.486 211.854 221.983 213.087 221.464C214.321 220.945 213.91 220.365 213.91 220.365C213.115 220.37 212.326 220.509 211.578 220.776C210.621 221.188 201.171 222.421 201.171 222.421L200.086 221.437C200.395 220.648 200.579 219.816 200.632 218.97C200.632 217.871 200.086 217.056 199.399 217.326C198.711 217.595 198.441 219.246 198.307 219.792C198.172 220.338 197.484 222.529 197.484 222.529L197.208 223.762L195.766 223.466C195.495 224.417 195.521 225.428 195.84 226.364C195.996 226.838 196.176 227.304 196.379 227.759H196.527C198.03 227.483 200.362 227.085 200.362 227.085H203.368C204.716 227.085 208.572 227.085 209.394 226.815L212.683 225.717C213.505 225.447 215.285 224.369 215.419 223.938C215.554 223.506 215.002 223.075 213.633 223.216Z" fill="white" stroke="#263238" stroke-width="0.674" stroke-linecap="round" stroke-linejoin="round"/>
<path d="M214.914 224.113C213.862 224.634 212.777 225.084 211.665 225.461C211.261 225.461 206.395 226 206.395 226" stroke="#263238" stroke-width="0.674" stroke-linecap="round" stroke-linejoin="round"/>
<path d="M186.35 324.492C186.385 324.358 186.43 324.227 186.485 324.101C186.431 324.188 186.37 324.276 186.309 324.364L186.35 324.492Z" fill="white" stroke="#263238" stroke-width="0.674" stroke-linecap="round" stroke-linejoin="round"/>
<path d="M202.256 168.184C202.256 168.184 201.542 165.198 200.463 167.106C199.385 169.013 200.585 172.006 201.063 172.498C201.542 172.99 202.499 171.426 202.499 171.426" fill="white"/>
<path d="M202.256 168.184C202.256 168.184 201.542 165.198 200.463 167.106C199.385 169.013 200.585 172.006 201.063 172.498C201.542 172.99 202.499 171.426 202.499 171.426" stroke="#263238" stroke-width="0.674" stroke-linecap="round" stroke-linejoin="round"/>
<path d="M218.904 168.184C218.904 168.184 219.619 165.198 220.697 167.106C221.775 169.013 220.576 172.006 220.097 172.498C219.619 172.99 218.668 171.426 218.668 171.426" fill="white"/>
<path d="M218.904 168.184C218.904 168.184 219.619 165.198 220.697 167.106C221.775 169.013 220.576 172.006 220.097 172.498C219.619 172.99 218.668 171.426 218.668 171.426" stroke="#263238" stroke-width="0.674" stroke-linecap="round" stroke-linejoin="round"/>
<path d="M214.698 157.151C210.614 155.21 204.238 156.8 202.816 161.532C201.757 165.05 201.919 169.694 201.919 173.664C201.919 175.625 204.467 178.173 204.467 178.173L204.662 181.893L210.728 185.614L215.824 182.089L216.019 178.564C216.019 178.564 218.756 176.212 219.153 174.452C219.551 172.693 218.81 162.678 218.109 160.743C217.807 159.948 217.351 159.221 216.765 158.604C216.179 157.987 215.477 157.493 214.698 157.151Z" fill="white" stroke="#263238" stroke-width="0.674" stroke-linecap="round" stroke-linejoin="round"/>
<path d="M208.706 161.95C208.706 161.95 206.684 160.4 204.406 162.55L208.706 161.95Z" fill="white"/>
<path d="M208.706 161.95C208.706 161.95 206.684 160.4 204.406 162.55" stroke="#263238" stroke-width="1.348" stroke-linecap="round" stroke-linejoin="round"/>
<path d="M212.649 162.118C213.271 161.643 214.037 161.395 214.82 161.416C215.602 161.437 216.354 161.725 216.949 162.233" fill="white"/>
<path d="M212.649 162.118C213.271 161.643 214.037 161.395 214.82 161.416C215.602 161.437 216.354 161.725 216.949 162.233" stroke="#263238" stroke-width="1.348" stroke-linecap="round" stroke-linejoin="round"/>
<path d="M211.813 166.998C211.765 167.418 211.592 167.814 211.315 168.134C211.039 168.453 210.672 168.682 210.263 168.791" fill="white"/>
<path d="M211.813 166.998C211.765 167.418 211.592 167.814 211.315 168.134C211.039 168.453 210.672 168.682 210.263 168.791" stroke="#263238" stroke-width="0.674" stroke-linecap="round" stroke-linejoin="round"/>
<path d="M207.635 170.368C207.635 170.368 209.785 171.204 213.485 170.368H207.635Z" fill="white"/>
<path d="M207.635 170.368C207.635 170.368 209.785 171.204 213.485 170.368" stroke="#263238" stroke-width="0.674" stroke-linecap="round" stroke-linejoin="round"/>
<path d="M212.791 178.55C212.171 178.766 211.483 178.995 210.857 179.177C209.185 179.649 205.842 178.099 205.842 178.099" fill="white"/>
<path d="M212.791 178.55C212.171 178.766 211.483 178.995 210.857 179.177C209.185 179.649 205.842 178.099 205.842 178.099" stroke="#263238" stroke-width="0.674" stroke-linecap="round" stroke-linejoin="round"/>
<path d="M214.678 177.863L213.842 178.18L214.678 177.863Z" fill="white"/>
<path d="M214.678 177.863L213.842 178.18" stroke="#263238" stroke-width="0.674" stroke-linecap="round" stroke-linejoin="round"/>
<path d="M215.109 163.85C215.109 164.221 214.887 164.524 214.617 164.524C214.348 164.524 214.125 164.221 214.125 163.85C214.125 163.48 214.348 163.176 214.617 163.176C214.887 163.176 215.109 163.48 215.109 163.85Z" fill="#263238"/>
<path d="M206.833 164.524C207.104 164.524 207.325 164.223 207.325 163.85C207.325 163.478 207.104 163.176 206.833 163.176C206.561 163.176 206.341 163.478 206.341 163.85C206.341 164.223 206.561 164.524 206.833 164.524Z" fill="#263238"/>
<path d="M212.346 162.812C212.076 163.394 211.892 164.011 211.8 164.646C211.745 165.058 211.787 165.478 211.921 165.872" stroke="#263238" stroke-width="0.674" stroke-linecap="round" stroke-linejoin="round"/>
<path d="M206.536 157.279C206.536 157.279 206.044 155.729 208.255 154.502C210.466 153.275 211.113 153.518 213.485 152.622C215.858 151.725 216.35 152.291 216.1 153.296C215.851 154.013 215.43 154.659 214.873 155.176C214.873 155.176 216.673 153.619 217.327 153.949C217.981 154.28 217.414 156.645 217.246 156.976C217.077 157.306 218.722 156.726 219.538 158.694C220.353 160.662 219.126 167.362 219.126 167.362C219.126 167.362 218.452 164.74 218.311 163.763C218.169 162.785 217.563 159.254 216.1 158.694C214.1 157.907 211.95 157.571 209.805 157.71C208.697 157.806 207.581 157.659 206.536 157.279Z" fill="#263238"/>
<path d="M206.536 156.706C206.536 156.706 204.656 155.89 203.348 157.036C202.041 158.182 203.018 158.674 202.856 159.159C202.694 159.645 201.791 159.24 201.057 161.532C200.322 163.823 202.034 165.866 202.034 165.866L202.283 166.85C202.283 166.85 202.775 163.985 202.775 163.331C202.775 162.678 204.002 161.943 204.245 161.127C204.487 160.312 204.979 158.263 206.86 157.447C206.86 157.447 206.947 156.888 206.536 156.706Z" fill="#263238"/>
<path d="M362.183 334.521H365.89" stroke="#263238" stroke-width="0.674" stroke-miterlimit="10"/>
<path d="M53.0798 334.521H359.487" stroke="#263238" stroke-width="0.674" stroke-miterlimit="10"/>
<path d="M104.041 71.7276L94.0326 81.736L104.041 91.7444L114.049 81.736L104.041 71.7276Z" stroke="#263238" stroke-width="0.674" stroke-linecap="round" stroke-linejoin="round"/>
<path d="M137.065 161.947L131.389 167.623L137.065 173.299L142.742 167.623L137.065 161.947Z" stroke="#263238" stroke-width="0.674" stroke-linecap="round" stroke-linejoin="round"/>
<path d="M343.47 113.337L337.794 119.013L343.47 124.689L349.146 119.013L343.47 113.337Z" stroke="#263238" stroke-width="0.674" stroke-linecap="round" stroke-linejoin="round"/>
<path d="M305.625 140.996L301.917 144.703L305.625 148.411L309.333 144.703L305.625 140.996Z" stroke="#263238" stroke-width="0.674" stroke-linecap="round" stroke-linejoin="round"/>
<path d="M75.1744 110.415L71.4665 114.123L75.1744 117.831L78.8822 114.123L75.1744 110.415Z" stroke="#263238" stroke-width="0.674" stroke-linecap="round" stroke-linejoin="round"/>
<path d="M322.668 41.1603L318.96 44.8682L322.668 48.576L326.376 44.8682L322.668 41.1603Z" stroke="#263238" stroke-width="0.674" stroke-linecap="round" stroke-linejoin="round"/>
</svg>
